<svg width="994" height="294" viewBox="0 0 994 294" fill="none" xmlns="http://www.w3.org/2000/svg">
<g filter="url(#filter0_d_2_24)">
<g filter="url(#filter1_d_2_24)">
<path d="M47 164C47 202.67 47 241.33 47 280C52.31 279.33 57.63 278.67 62.94 278.02C68.25 277.37 73.57 276.74 78.89 276.11C78.9 248.58 78.92 221.05 78.93 193.52C78.96 139.14 79.27 110.91 79.97 110.9C80.57 110.88 80.97 111.16 80.97 111.46C80.97 112.02 89.85 146.18 102.88 194.21C106.66 208.33 112.73 230.77 116.31 243.93C119.89 257.11 123.07 268.6 123.37 269.43C123.87 270.93 125.66 270.9 142.33 269.21C148.45 268.6 154.58 268 160.7 267.42C160.75 230.85 160.8 194.28 160.85 157.71C160.9 121.14 160.95 84.57 161 48C155.67 48 150.33 48 145 48C139.67 48 134.33 48 129 48C128.98 70.13 128.95 92.26 128.93 114.39C128.78 161.21 128.46 180.42 127.76 179.22C126.16 176.34 127.08 180.81 96.59 64.56C95.19 59.21 93.8 53.85 92.4 48.48C84.83 48.38 77.27 48.29 69.7 48.19C62.13 48.12 54.57 48.06 47 47.99C47 86.67 47 125.33 47 164Z" fill="#B91C1C"/>
<path d="M188.83 156.43C188.77 192.57 188.72 228.72 188.66 264.86C205.15 263.42 221.64 262.09 238.14 260.87C254.64 259.65 271.14 258.54 287.65 257.54C287.66 252.72 287.67 247.91 287.67 243.09C287.67 238.27 287.69 233.46 287.69 228.64C277.62 229.17 267.55 229.73 257.48 230.32C240.78 231.31 226.58 231.9 225.88 231.57C224.98 230.99 224.69 223.72 224.94 198.17C225.06 187.29 225.18 176.4 225.29 165.52C233.56 165.08 241.82 164.65 250.09 164.24C258.32 163.86 266.56 163.49 274.79 163.15C274.8 158.31 274.81 153.48 274.81 148.64C274.82 143.8 274.83 138.97 274.83 134.13C266.6 134.29 258.36 134.45 250.13 134.63C241.86 134.78 233.6 134.94 225.33 135.1C225.25 125.76 225.16 116.42 225.08 107.08C224.92 85.23 225.23 78.87 226.13 78.21C226.83 77.83 241.03 77.31 257.73 77.15C267.8 77.05 277.86 76.96 287.93 76.88C287.94 72.06 287.95 67.25 287.95 62.43C287.95 57.61 287.97 52.8 287.97 47.98C271.47 47.98 254.97 47.98 238.47 47.98C221.97 47.98 205.47 47.98 188.97 47.98C188.94 84.14 188.89 120.29 188.83 156.43Z" fill="#B91C1C"/>
<path d="M303 48.27C303 48.6 304.29 51.95 318.44 87.86C324.32 102.59 332.09 122.38 335.88 131.94C338.14 137.69 340.4 143.44 342.66 149.18C338.98 158.47 335.3 167.78 331.61 177.11C325.48 192.46 316.04 216.46 310.62 230.56C305.19 244.55 300.67 256.24 300.67 256.42C300.67 256.6 308.17 256.35 317.48 255.86C323.05 255.57 328.62 255.29 334.2 255.02C338.72 242.91 343.24 230.84 347.76 218.81C355.19 198.96 361.72 182.93 362.32 183.09C362.82 183.25 364.62 186.84 366.31 191.23C367.91 195.53 373.79 211.05 379.28 225.73C382.61 234.62 385.93 243.49 389.26 252.36C395.54 252.24 401.81 252.14 408.09 252.05C418.41 251.85 426.82 251.58 426.82 251.22C426.82 250.65 422.31 239.84 394.75 171.92C389.86 159.93 385.87 149.13 385.87 148.07C385.87 147.01 386.78 143.99 387.78 141.42C388.88 138.84 393.6 127.03 398.31 115.17C403.03 103.39 410.75 84.33 415.36 72.8C419.97 61.35 424.08 51.08 424.38 49.93C424.61 49.29 424.85 48.64 425.08 48C419.58 48 414.08 48 408.58 48C393.88 48 391.98 48.18 391.18 49.5C390.68 50.38 384.96 65.12 378.44 82.31C371.42 101.01 366.2 113.5 365.5 113.33C364.9 113.16 359.02 98.44 352.44 80.62C348.49 69.77 344.54 58.9 340.58 48C334.31 48 328.05 48 321.78 48C311.5 48 303 48.09 303 48.27Z" fill="#B91C1C"/>
<path d="M435.99 62.04C435.99 66.72 435.98 71.4 435.98 76.08C441.78 76.06 447.58 76.05 453.38 76.04C462.98 76.02 471.48 76.27 472.38 76.53C473.78 77.05 473.98 85.54 473.95 164.01C473.94 193 473.93 221.98 473.92 250.97C479.93 250.91 485.94 250.86 491.96 250.83C497.97 250.8 503.98 250.78 510 250.78C510 222 510 193.21 510 164.43C510 98.44 510.3 77.81 511.2 77.03C512 76.33 517.7 75.98 530.21 75.99C536.14 75.99 542.08 76 548.01 76.01C548.01 71.34 548.01 66.68 548.01 62.01C548.01 57.34 548.01 52.68 548.01 48.01C529.34 48.01 510.68 48.01 492.01 48.01C473.34 48.01 454.68 48.01 436.01 48.01C436 52.68 435.99 57.36 435.99 62.04Z" fill="#B91C1C"/>
<path d="M567.05 149.6C567.07 183.47 567.09 217.33 567.1 251.2C573.04 251.23 578.99 251.28 584.93 251.34C590.84 251.37 596.75 251.41 602.66 251.47C602.75 236.77 602.84 222.06 602.92 207.36C602.97 192.63 603.03 177.89 603.08 163.15C610.85 163.2 618.63 163.26 626.4 163.34C634.14 163.39 641.88 163.45 649.62 163.52C649.61 158.8 649.61 154.08 649.6 149.36C649.59 144.64 649.59 139.92 649.58 135.2C641.84 134.99 634.1 134.79 626.36 134.6C618.59 134.44 610.82 134.29 603.04 134.15C603.03 124.66 603.02 115.17 603.02 105.67C603 80.53 603.2 77.11 604.6 76.67C605.5 76.41 619 76.19 634.61 76.26C644.08 76.3 653.55 76.35 663.02 76.41C663.01 71.68 663.01 66.94 663 62.21C662.99 57.48 662.99 52.74 662.98 48.01C646.98 48.01 630.98 48.01 614.98 48.01C598.98 48.01 582.98 48.01 566.98 48.01C567.02 81.87 567.04 115.73 567.05 149.6Z" fill="#B91C1C"/>
<path d="M681.15 151.33C681.2 185.77 681.25 220.22 681.3 254.66C697.29 255.39 713.27 256.23 729.25 257.17C771.98 259.78 777.26 260.18 777.77 258.88C778.77 256.48 778.43 232.19 777.32 231.49C776.72 231.18 763.92 230.1 748.81 229.36C731.1 228.38 720.59 227.63 719.29 226.93C717.29 225.84 717.29 224.77 717.15 136.97C717.1 107.31 717.06 77.66 717.01 48C711.01 48 705.01 48 699.01 48C693.01 48 687.01 48 681.01 48C681.05 82.44 681.1 116.89 681.15 151.33Z" fill="#B91C1C"/>
<path d="M796.18 154.87C796.24 190.49 796.3 226.12 796.36 261.74C802.36 262.2 808.36 262.68 814.35 263.17C820.35 263.66 826.34 264.17 832.34 264.69C832.28 228.58 832.23 192.46 832.17 156.35C832.11 120.24 832.06 84.12 832 48.01C826 48.01 820 48.01 814 48.01C808 48.01 802 48.01 796 48.01C796.06 83.62 796.12 119.25 796.18 154.87Z" fill="#B91C1C"/>
<path d="M852 48.38C852 48.57 853.1 51.39 854.41 54.79C855.71 58.09 862.74 76.5 869.86 95.93C877.08 115.42 885 137.13 887.61 144.05C889.15 148.26 890.68 152.48 892.22 156.72C888.07 167.69 883.92 178.61 879.77 189.46C873 207.45 863.74 231.27 859.47 242.6C855.09 253.95 851.21 263.85 850.81 264.66C850.11 266.2 851.31 266.38 867.09 267.89C872.75 268.44 878.41 268.99 884.06 269.57C888.5 257.38 892.95 245.13 897.39 232.8C904.65 212.4 911.13 195.52 911.63 195.56C912.23 195.61 918.54 213.25 925.73 235.06C930.06 248.29 934.39 261.61 938.72 275.02C944.93 275.84 951.15 276.67 957.36 277.52C967.62 278.86 975.99 279.73 975.99 279.22C975.99 278.64 968.43 255.7 948.86 199.81C944.46 187.23 939.47 172.98 937.77 167.98C936.74 164.91 935.7 161.85 934.67 158.79C938.06 149.59 941.45 140.34 944.84 131.04C950.32 115.66 959.21 91.1 964.5 76.44C969.7 61.8 974 49.3 974 48.8C974 48.3 966.5 48.1 957.4 48.2C951.83 48.3 946.27 48.4 940.7 48.49C937.94 56.51 935.18 64.49 932.42 72.44C927.83 85.59 922.24 101.51 919.95 107.94C917.76 114.48 915.56 119.73 915.06 119.72C914.06 119.74 912.46 115.03 899.93 78.03C896.49 67.98 893.04 57.97 889.6 48.01C883.33 48.01 877.07 48.01 870.8 48.01C860.5 48 852 48.19 852 48.38Z" fill="#B91C1C"/>
</g>
</g>
<defs>
<filter id="filter0_d_2_24" x="-6" y="-6" width="1044" height="347" filterUnits="userSpaceOnUse" color-interpolation-filters="sRGB">
<feFlood flood-opacity="0" result="BackgroundImageFix"/>
<feColorMatrix in="SourceAlpha" type="matrix" values="0 0 0 0 0 0 0 0 0 0 0 0 0 0 0 0 0 0 127 0" result="hardAlpha"/>
<feOffset dx="4" dy="4"/>
<feGaussianBlur stdDeviation="5"/>
<feComposite in2="hardAlpha" operator="out"/>
<feColorMatrix type="matrix" values="0 0 0 0 0 0 0 0 0 0 0 0 0 0 0 0 0 0 0.25 0"/>
<feBlend mode="normal" in2="BackgroundImageFix" result="effect1_dropShadow_2_24"/>
<feBlend mode="normal" in="SourceGraphic" in2="effect1_dropShadow_2_24" result="shape"/>
</filter>
<filter id="filter1_d_2_24" x="43" y="47.98" width="948.99" height="252.02" filterUnits="userSpaceOnUse" color-interpolation-filters="sRGB">
<feFlood flood-opacity="0" result="BackgroundImageFix"/>
<feColorMatrix in="SourceAlpha" type="matrix" values="0 0 0 0 0 0 0 0 0 0 0 0 0 0 0 0 0 0 127 0" result="hardAlpha"/>
<feOffset dx="6" dy="10"/>
<feGaussianBlur stdDeviation="5"/>
<feComposite in2="hardAlpha" operator="out"/>
<feColorMatrix type="matrix" values="0 0 0 0 0 0 0 0 0 0 0 0 0 0 0 0 0 0 0.25 0"/>
<feBlend mode="normal" in2="BackgroundImageFix" result="effect1_dropShadow_2_24"/>
<feBlend mode="normal" in="SourceGraphic" in2="effect1_dropShadow_2_24" result="shape"/>
</filter>
</defs>
</svg>
